<svg width="512" height="512" viewBox="0 0 512 512" fill="none" xmlns="http://www.w3.org/2000/svg">
  <rect width="512" height="512" rx="256" fill="url(#paint0_linear)" />
  <path d="M155 144H185L226 235.5L267 144H297V368H267V184L226 275.5L185 184V368H155V144Z" fill="white"/>
  <path d="M316 144H355C388.333 144 415 170.667 415 204V308C415 341.333 388.333 368 355 368H316V144ZM346 174V338H355C371.667 338 385 324.667 385 308V204C385 187.333 371.667 174 355 174H346Z" fill="white"/>
  <defs>
    <linearGradient id="paint0_linear" x1="256" y1="0" x2="256" y2="512" gradientUnits="userSpaceOnUse">
      <stop stop-color="#3B82F6"/>
      <stop offset="1" stop-color="#14B8A6"/>
    </linearGradient>
  </defs>
</svg> 